ffmpeg version N-93544-g0a347ff422 Copyright (c) 2000-2019 the FFmpeg developers
  built with gcc 8.2.1 (GCC) 20190212
  configuration: --enable-gpl --enable-version3 --enable-sdl2 --enable-fontconfig --enable-gnutls --enable-iconv --enable-libass --enable-libdav1d --enable-libbluray --enable-libfreetype --enable-libmp3lame --enable-libopencore-amrnb --enable-libopencore-amrwb --enable-libopenjpeg --enable-libopus --enable-libshine --enable-libsnappy --enable-libsoxr --enable-libtheora --enable-libtwolame --enable-libvpx --enable-libwavpack --enable-libwebp --enable-libx264 --enable-libx265 --enable-libxml2 --enable-libzimg --enable-lzma --enable-zlib --enable-gmp --enable-libvidstab --enable-libvorbis --enable-libvo-amrwbenc --enable-libmysofa --enable-libspeex --enable-libxvid --enable-libaom --enable-libmfx --enable-amf --enable-ffnvcodec --enable-cuvid --enable-d3d11va --enable-nvenc --enable-nvdec --enable-dxva2 --enable-avisynth --enable-libopenmpt
  libavutil      56. 26.100 / 56. 26.100
  libavcodec     58. 48.101 / 58. 48.101
  libavformat    58. 27.100 / 58. 27.100
  libavdevice    58.  7.100 / 58.  7.100
  libavfilter     7. 48.100 /  7. 48.100
  libswscale      5.  4.100 /  5.  4.100
  libswresample   3.  4.100 /  3.  4.100
  libpostproc    55.  4.100 / 55.  4.100
Guessed Channel Layout for Input Stream #0.0 : mono
Input #0, wav, from './InputAudio/gettysburg.wav':
  Duration: 00:00:17.58, bitrate: 352 kb/s
    Stream #0:0: Audio: pcm_s16le ([1][0][0][0] / 0x0001), 22050 Hz, mono, s16, 352 kb/s
Stream mapping:
  Stream #0:0 -> #0:0 (pcm_s16le (native) -> pcm_s16le (native))
Press [q] to stop, [?] for help
Output #0, null, to 'pipe:':
  Metadata:
    encoder         : Lavf58.27.100
    Stream #0:0: Audio: pcm_s16le, 22050 Hz, mono, s16, 352 kb/s
    Metadata:
      encoder         : Lavc58.48.101 pcm_s16le
[silencedetect @ 00000262bb6cc100] silence_start: 0
[silencedetect @ 00000262bb6cc100] silence_end: 0.451111 | silence_duration: 0.451111
[silencedetect @ 00000262bb6cc100] silence_start: 2.05633
[silencedetect @ 00000262bb6cc100] silence_end: 2.39016 | silence_duration: 0.333832
[silencedetect @ 00000262bb6cc100] silence_start: 5.24567
[silencedetect @ 00000262bb6cc100] silence_end: 5.66404 | silence_duration: 0.418367
[silencedetect @ 00000262bb6cc100] silence_start: 9.87166
[silencedetect @ 00000262bb6cc100] silence_end: 10.5684 | silence_duration: 0.696735
[silencedetect @ 00000262bb6cc100] silence_start: 16.0215
[silencedetect @ 00000262bb6cc100] silence_end: 16.2954 | silence_duration: 0.273923
[silencedetect @ 00000262bb6cc100] silence_start: 17.3459
size=N/A time=00:00:17.57 bitrate=N/A speed=4.4e+03x    
video:0kB audio:757kB subtitle:0kB other streams:0kB global headers:0kB muxing overhead: unknown
[silencedetect @ 00000262bb6cc100] silence_end: 17.5771 | silence_duration: 0.231202
